<svg aria-roledescription="gitGraph" role="graphics-document document" viewBox="-135.14453125 -34.70000076293945 598.54296875 252.05056762695312" style="max-width: 3840px; background-color: white; max-height: 3840px;" xmlns:xlink="http://www.w3.org/1999/xlink" xmlns="http://www.w3.org/2000/svg" width="100%" id="my-svg"><style>#my-svg{font-family:arial,sans-serif;font-size:14px;fill:#333;}@keyframes edge-animation-frame{from{stroke-dashoffset:0;}}@keyframes dash{to{stroke-dashoffset:0;}}#my-svg .edge-animation-slow{stroke-dasharray:9,5!important;stroke-dashoffset:900;animation:dash 50s linear infinite;stroke-linecap:round;}#my-svg .edge-animation-fast{stroke-dasharray:9,5!important;stroke-dashoffset:900;animation:dash 20s linear infinite;stroke-linecap:round;}#my-svg .error-icon{fill:#ffffff;}#my-svg .error-text{fill:#000000;stroke:#000000;}#my-svg .edge-thickness-normal{stroke-width:2px;}#my-svg .edge-thickness-thick{stroke-width:3.5px;}#my-svg .edge-pattern-solid{stroke-dasharray:0;}#my-svg .edge-thickness-invisible{stroke-width:0;fill:none;}#my-svg .edge-pattern-dashed{stroke-dasharray:3;}#my-svg .edge-pattern-dotted{stroke-dasharray:2;}#my-svg .marker{fill:#000000;stroke:#000000;}#my-svg .marker.cross{stroke:#000000;}#my-svg svg{font-family:arial,sans-serif;font-size:14px;}#my-svg p{margin:0;}#my-svg .commit-id,#my-svg .commit-msg,#my-svg .branch-label{fill:lightgrey;color:lightgrey;font-family:'trebuchet ms',verdana,arial,sans-serif;font-family:var(--mermaid-font-family);}#my-svg .branch-label0{fill:#333;}#my-svg .commit0{stroke:hsl(240, 90%, 71.0784313725%);fill:hsl(240, 90%, 71.0784313725%);}#my-svg .commit-highlight0{stroke:rgb(140.1250000002, 140.1250000002, 7.375);fill:rgb(140.1250000002, 140.1250000002, 7.375);}#my-svg .label0{fill:hsl(240, 90%, 71.0784313725%);}#my-svg .arrow0{stroke:hsl(240, 90%, 71.0784313725%);}#my-svg .branch-label1{fill:#333;}#my-svg .commit1{stroke:hsl(240, 22.2222222222%, 67.9411764706%);fill:hsl(240, 22.2222222222%, 67.9411764706%);}#my-svg .commit-highlight1{stroke:rgb(99.9166666666, 99.9166666666, 63.5833333333);fill:rgb(99.9166666666, 99.9166666666, 63.5833333333);}#my-svg .label1{fill:hsl(240, 22.2222222222%, 67.9411764706%);}#my-svg .arrow1{stroke:hsl(240, 22.2222222222%, 67.9411764706%);}#my-svg .branch-label2{fill:#333;}#my-svg .commit2{stroke:hsl(60, 90%, 75%);fill:hsl(60, 90%, 75%);}#my-svg .commit-highlight2{stroke:rgb(6.375, 6.375, 121.125);fill:rgb(6.375, 6.375, 121.125);}#my-svg .label2{fill:hsl(60, 90%, 75%);}#my-svg .arrow2{stroke:hsl(60, 90%, 75%);}#my-svg .branch-label3{fill:#333;}#my-svg .commit3{stroke:hsl(210, 90%, 71.0784313725%);fill:hsl(210, 90%, 71.0784313725%);}#my-svg .commit-highlight3{stroke:rgb(140.1250000002, 73.7500000001, 7.375);fill:rgb(140.1250000002, 73.7500000001, 7.375);}#my-svg .label3{fill:hsl(210, 90%, 71.0784313725%);}#my-svg .arrow3{stroke:hsl(210, 90%, 71.0784313725%);}#my-svg .branch-label4{fill:#333;}#my-svg .commit4{stroke:hsl(180, 90%, 71.0784313725%);fill:hsl(180, 90%, 71.0784313725%);}#my-svg .commit-highlight4{stroke:rgb(140.1250000002, 7.375, 7.375);fill:rgb(140.1250000002, 7.375, 7.375);}#my-svg .label4{fill:hsl(180, 90%, 71.0784313725%);}#my-svg .arrow4{stroke:hsl(180, 90%, 71.0784313725%);}#my-svg .branch-label5{fill:#333;}#my-svg .commit5{stroke:hsl(150, 90%, 71.0784313725%);fill:hsl(150, 90%, 71.0784313725%);}#my-svg .commit-highlight5{stroke:rgb(140.1250000002, 7.375, 73.7500000001);fill:rgb(140.1250000002, 7.375, 73.7500000001);}#my-svg .label5{fill:hsl(150, 90%, 71.0784313725%);}#my-svg .arrow5{stroke:hsl(150, 90%, 71.0784313725%);}#my-svg .branch-label6{fill:#333;}#my-svg .commit6{stroke:hsl(300, 90%, 71.0784313725%);fill:hsl(300, 90%, 71.0784313725%);}#my-svg .commit-highlight6{stroke:rgb(7.375, 140.1250000002, 7.375);fill:rgb(7.375, 140.1250000002, 7.375);}#my-svg .label6{fill:hsl(300, 90%, 71.0784313725%);}#my-svg .arrow6{stroke:hsl(300, 90%, 71.0784313725%);}#my-svg .branch-label7{fill:#333;}#my-svg .commit7{stroke:hsl(0, 90%, 71.0784313725%);fill:hsl(0, 90%, 71.0784313725%);}#my-svg .commit-highlight7{stroke:rgb(7.375, 140.1250000002, 140.1250000002);fill:rgb(7.375, 140.1250000002, 140.1250000002);}#my-svg .label7{fill:hsl(0, 90%, 71.0784313725%);}#my-svg .arrow7{stroke:hsl(0, 90%, 71.0784313725%);}#my-svg .branch{stroke-width:1;stroke:#000000;stroke-dasharray:2;}#my-svg .commit-label{font-size:10px;fill:#333333;}#my-svg .commit-label-bkg{font-size:10px;fill:hsl(-120, 0%, 80%);opacity:0.5;}#my-svg .tag-label{font-size:10px;fill:#333;}#my-svg .tag-label-bkg{fill:#cccccc;stroke:hsl(0, 0%, 70%);}#my-svg .tag-hole{fill:#333;}#my-svg .commit-merge{stroke:#cccccc;fill:#cccccc;}#my-svg .commit-reverse{stroke:#cccccc;fill:#cccccc;stroke-width:3;}#my-svg .commit-highlight-inner{stroke:#cccccc;fill:#cccccc;}#my-svg .arrow{stroke-width:8;stroke-linecap:round;fill:none;}#my-svg .gitTitleText{text-anchor:middle;font-size:18px;fill:#333;}#my-svg .node .neo-node{stroke:#000000;}#my-svg [data-look="neo"].node rect,#my-svg [data-look="neo"].cluster rect,#my-svg [data-look="neo"].node polygon{stroke:url(#my-svg-gradient);filter:drop-shadow( 0px 1px 2px rgba(0, 0, 0, 0.25));}#my-svg [data-look="neo"].node path{stroke:url(#my-svg-gradient);stroke-width:2;}#my-svg [data-look="neo"].node .outer-path{filter:drop-shadow( 0px 1px 2px rgba(0, 0, 0, 0.25));}#my-svg [data-look="neo"].node .neo-line path{stroke:#000000;filter:none;}#my-svg [data-look="neo"].node circle{stroke:url(#my-svg-gradient);filter:drop-shadow( 0px 1px 2px rgba(0, 0, 0, 0.25));}#my-svg [data-look="neo"].node circle .state-start{fill:#000000;}#my-svg [data-look="neo"].statediagram-cluster rect{fill:#ffffff;stroke:url(#my-svg-gradient);stroke-width:2;}#my-svg [data-look="neo"].icon-shape .icon{fill:url(#my-svg-gradient);filter:drop-shadow( 0px 1px 2px rgba(0, 0, 0, 0.25));}#my-svg [data-look="neo"].icon-shape .icon-neo path{stroke:url(#my-svg-gradient);filter:drop-shadow( 0px 1px 2px rgba(0, 0, 0, 0.25));}#my-svg :root{--mermaid-font-family:"trebuchet ms",verdana,arial,sans-serif;}</style><g/><g class="commit-bullets"/><g class="commit-labels"/><g><line class="branch branch0" y2="0" x2="450" y1="0" x1="0"/><rect transform="translate(-19, -8)" height="20" width="48.359375" y="0" x="-64.359375" ry="4" rx="4" class="branchLabelBkg label0"/><g class="branchLabel"><g transform="translate(-74.359375, -9)" class="label branch-label0"><text><tspan class="row" x="0" dy="1em" xml:space="preserve">main</tspan></text></g></g><line class="branch branch1" y2="90" x2="450" y1="90" x1="0"/><rect transform="translate(-19, 82)" height="20" width="61.7998046875" y="0" x="-77.7998046875" ry="4" rx="4" class="branchLabelBkg label1"/><g class="branchLabel"><g transform="translate(-87.7998046875, 81)" class="label branch-label1"><text><tspan class="row" x="0" dy="1em" xml:space="preserve">feature</tspan></text></g></g><line class="branch branch2" y2="180" x2="450" y1="180" x1="0"/><rect transform="translate(-19, 172)" height="20" width="92.14453125" y="0" x="-108.14453125" ry="4" rx="4" class="branchLabelBkg label2"/><g class="branchLabel"><g transform="translate(-118.14453125, 171)" class="label branch-label2"><text><tspan class="row" x="0" dy="1em" xml:space="preserve">new-feature</tspan></text></g></g></g><g class="commit-arrows"><path class="arrow arrow1" d="M 10 0 L 10 70 A 20 20, 0, 0, 0, 30 90 L 60 90"/><path class="arrow arrow1" d="M 60 90 L 110 90"/><path class="arrow arrow0" d="M 10 0 L 160 0"/><path class="arrow arrow0" d="M 160 0 L 210 0"/><path class="arrow arrow0" d="M 210 0 L 260 0"/><path class="arrow arrow1" d="M 110 90 L 240 90 A 20 20, 0, 0, 0, 260 70 L 260 0"/><path class="arrow arrow0" d="M 260 0 L 310 0"/><path class="arrow arrow2" d="M 310 0 L 310 160 A 20 20, 0, 0, 0, 330 180 L 360 180"/><path class="arrow arrow2" d="M 360 180 L 410 180"/></g><g class="commit-bullets"><circle class="commit A commit0" r="10" cy="0" cx="10"/><circle class="commit B commit1" r="10" cy="90" cx="60"/><circle class="commit C commit1" r="10" cy="90" cx="110"/><circle class="commit D commit0" r="10" cy="0" cx="160"/><circle class="commit E commit0" r="10" cy="0" cx="210"/><circle class="commit M commit0" r="9" cy="0" cx="260"/><circle class="commit commit-merge M commit0" r="6" cy="0" cx="260"/><circle class="commit F commit0" r="10" cy="0" cx="310"/><circle class="commit X commit2" r="10" cy="180" cx="360"/><rect class="commit Y commit-highlight2 commit-highlight-outer" height="20" width="20" y="170" x="400"/><rect class="commit Y commit2 commit-highlight-inner" height="12" width="12" y="174" x="404"/></g><g class="commit-labels"><g transform="translate(-14.34, 12.72) rotate(-45, 0, 0)"><rect height="15" width="12" y="13.5" x="4" class="commit-label-bkg"/><text class="commit-label" y="25" x="6">A</text></g><g transform="translate(-13.96, 12.38) rotate(-45, 50, 90)"><rect height="15" width="11" y="103.5" x="54.5" class="commit-label-bkg"/><text class="commit-label" y="115" x="56.5">B</text></g><g transform="translate(-14.0490625, 12.4596875) rotate(-45, 100, 90)"><rect height="15" width="11.234375" y="103.5" x="104.3828125" class="commit-label-bkg"/><text class="commit-label" y="115" x="106.3828125">C</text></g><g transform="translate(-14.0490625, 12.4596875) rotate(-45, 150, 0)"><rect height="15" width="11.234375" y="13.5" x="154.3828125" class="commit-label-bkg"/><text class="commit-label" y="25" x="156.3828125">D</text></g><g transform="translate(-13.96, 12.38) rotate(-45, 200, 0)"><rect height="15" width="11" y="13.5" x="204.5" class="commit-label-bkg"/><text class="commit-label" y="25" x="206.5">E</text></g><g transform="translate(-14.470625, 12.836875) rotate(-45, 250, 0)"><rect height="15" width="12.34375" y="13.5" x="253.828125" class="commit-label-bkg"/><text class="commit-label" y="25" x="255.828125">M</text></g><polygon points="228.203125,-17.2  &#10;      228.203125,-21.2&#10;      236.203125,-26.7&#10;      283.796875,-26.7&#10;      283.796875,-11.7&#10;      236.203125,-11.7" class="tag-label-bkg"/><circle class="tag-hole" r="1.5" cx="232.203125" cy="-19.2"/><text x="240.203125" class="tag-label" y="-16">머지 커밋</text><g transform="translate(-13.6215625, 12.0771875) rotate(-45, 300, 0)"><rect height="15" width="10.109375" y="13.5" x="304.9453125" class="commit-label-bkg"/><text class="commit-label" y="25" x="306.9453125">F</text></g><g transform="translate(-13.96, 12.38) rotate(-45, 350, 180)"><rect height="15" width="11" y="193.5" x="354.5" class="commit-label-bkg"/><text class="commit-label" y="205" x="356.5">X</text></g><g transform="translate(-13.96, 12.38) rotate(-45, 400, 180)"><rect height="15" width="11" y="193.5" x="404.5" class="commit-label-bkg"/><text class="commit-label" y="205" x="406.5">Y</text></g><polygon points="356.6015625,162.8  &#10;      356.6015625,158.8&#10;      364.6015625,153.3&#10;      455.3984375,153.3&#10;      455.3984375,168.3&#10;      364.6015625,168.3" class="tag-label-bkg"/><circle class="tag-hole" r="1.5" cx="360.6015625" cy="160.8"/><text x="368.6015625" class="tag-label" y="164">cherry-pick -m 1 M</text></g></svg>